<svg width="30" height="36" viewBox="0 0 30 36" fill="none" xmlns="http://www.w3.org/2000/svg" xmlns:xlink="http://www.w3.org/1999/xlink">
<path d="M16.12,0.566C15.557,0.004 14.795,-0.311 14,-0.311C13.205,-0.311 12.442,0.004 11.88,0.566L0.562,11.878C-0.001,12.441 -0.317,13.204 -0.317,14C-0.317,14.796 -0.001,15.559 0.562,16.122C1.125,16.685 1.888,17.001 2.684,17.001C3.48,17.001 4.243,16.685 4.806,16.122L11,9.93L11,33C11,33.796 11.316,34.559 11.879,35.121C12.441,35.684 13.204,36 14,36C14.796,36 15.559,35.684 16.121,35.121C16.684,34.559 17,33.796 17,33L17,9.93L23.192,16.122C23.471,16.401 23.801,16.622 24.166,16.773C24.53,16.923 24.92,17.001 25.314,17.001C25.708,17.001 26.098,16.923 26.462,16.773C26.826,16.622 27.157,16.401 27.436,16.122C27.715,15.843 27.936,15.513 28.086,15.148C28.237,14.784 28.315,14.394 28.315,14C28.315,13.606 28.237,13.216 28.086,12.852C27.936,12.487 27.715,12.157 27.436,11.878L16.12,0.566Z" transform="rotate(177.541 13.999 17.844)" fill="#FFFFFF"/>
</svg>
